<svg xmlns="http://www.w3.org/2000/svg" viewBox="0 0 1200 200" preserveAspectRatio="xMidYMid slice"><rect x="0" y="96.0" width="4" height="8.0" rx="2" fill="#c2410c" opacity=".16"/><rect x="10" y="93.8" width="4" height="12.5" rx="2" fill="#c2410c" opacity=".16"/><rect x="20" y="89.6" width="4" height="20.7" rx="2" fill="#c2410c" opacity=".16"/><rect x="30" y="89.9" width="4" height="20.3" rx="2" fill="#c2410c" opacity=".16"/><rect x="40" y="84.4" width="4" height="31.1" rx="2" fill="#c2410c" opacity=".16"/><rect x="50" y="83.4" width="4" height="33.2" rx="2" fill="#c2410c" opacity=".16"/><rect x="60" y="84.6" width="4" height="30.9" rx="2" fill="#c2410c" opacity=".16"/><rect x="70" y="77.5" width="4" height="45.0" rx="2" fill="#c2410c" opacity=".16"/><rect x="80" y="81.9" width="4" height="36.2" rx="2" fill="#c2410c" opacity=".16"/><rect x="90" y="74.9" width="4" height="50.2" rx="2" fill="#c2410c" opacity=".16"/><rect x="100" y="79.2" width="4" height="41.6" rx="2" fill="#c2410c" opacity=".16"/><rect x="110" y="78.1" width="4" height="43.9" rx="2" fill="#c2410c" opacity=".16"/><rect x="120" y="71.8" width="4" height="56.5" rx="2" fill="#c2410c" opacity=".16"/><rect x="130" y="64.3" width="4" height="71.4" rx="2" fill="#c2410c" opacity=".16"/><rect x="140" y="76.3" width="4" height="47.3" rx="2" fill="#c2410c" opacity=".16"/><rect x="150" y="74.7" width="4" height="50.6" rx="2" fill="#c2410c" opacity=".16"/><rect x="160" y="68.1" width="4" height="63.7" rx="2" fill="#c2410c" opacity=".16"/><rect x="170" y="63.6" width="4" height="72.7" rx="2" fill="#c2410c" opacity=".16"/><rect x="180" y="70.9" width="4" height="58.2" rx="2" fill="#c2410c" opacity=".16"/><rect x="190" y="75.0" width="4" height="49.9" rx="2" fill="#c2410c" opacity=".16"/><rect x="200" y="68.5" width="4" height="63.0" rx="2" fill="#c2410c" opacity=".16"/><rect x="210" y="82.8" width="4" height="34.5" rx="2" fill="#c2410c" opacity=".16"/><rect x="220" y="75.1" width="4" height="49.8" rx="2" fill="#c2410c" opacity=".16"/><rect x="230" y="83.5" width="4" height="33.0" rx="2" fill="#c2410c" opacity=".16"/><rect x="240" y="86.8" width="4" height="26.3" rx="2" fill="#c2410c" opacity=".16"/><rect x="250" y="89.0" width="4" height="21.9" rx="2" fill="#c2410c" opacity=".16"/><rect x="260" y="90.3" width="4" height="19.5" rx="2" fill="#c2410c" opacity=".16"/><rect x="270" y="91.5" width="4" height="17.0" rx="2" fill="#c2410c" opacity=".16"/><rect x="280" y="95.4" width="4" height="9.3" rx="2" fill="#c2410c" opacity=".16"/><rect x="290" y="93.8" width="4" height="12.5" rx="2" fill="#c2410c" opacity=".16"/><rect x="300" y="90.5" width="4" height="18.9" rx="2" fill="#c2410c" opacity=".16"/><rect x="310" y="88.8" width="4" height="22.3" rx="2" fill="#c2410c" opacity=".16"/><rect x="320" y="85.1" width="4" height="29.8" rx="2" fill="#c2410c" opacity=".16"/><rect x="330" y="86.7" width="4" height="26.6" rx="2" fill="#c2410c" opacity=".16"/><rect x="340" y="85.0" width="4" height="30.0" rx="2" fill="#c2410c" opacity=".16"/><rect x="350" y="81.7" width="4" height="36.7" rx="2" fill="#c2410c" opacity=".16"/><rect x="360" y="73.7" width="4" height="52.5" rx="2" fill="#c2410c" opacity=".16"/><rect x="370" y="75.4" width="4" height="49.2" rx="2" fill="#c2410c" opacity=".16"/><rect x="380" y="75.7" width="4" height="48.6" rx="2" fill="#c2410c" opacity=".16"/><rect x="390" y="70.2" width="4" height="59.6" rx="2" fill="#c2410c" opacity=".16"/><rect x="400" y="71.5" width="4" height="57.0" rx="2" fill="#c2410c" opacity=".16"/><rect x="410" y="73.5" width="4" height="52.9" rx="2" fill="#c2410c" opacity=".16"/><rect x="420" y="64.6" width="4" height="70.7" rx="2" fill="#c2410c" opacity=".16"/><rect x="430" y="66.3" width="4" height="67.3" rx="2" fill="#c2410c" opacity=".16"/><rect x="440" y="74.6" width="4" height="50.9" rx="2" fill="#c2410c" opacity=".16"/><rect x="450" y="69.6" width="4" height="60.8" rx="2" fill="#c2410c" opacity=".16"/><rect x="460" y="71.4" width="4" height="57.2" rx="2" fill="#c2410c" opacity=".16"/><rect x="470" y="67.4" width="4" height="65.3" rx="2" fill="#c2410c" opacity=".16"/><rect x="480" y="71.4" width="4" height="57.2" rx="2" fill="#c2410c" opacity=".16"/><rect x="490" y="79.2" width="4" height="41.5" rx="2" fill="#c2410c" opacity=".16"/><rect x="500" y="73.0" width="4" height="54.1" rx="2" fill="#c2410c" opacity=".16"/><rect x="510" y="84.7" width="4" height="30.6" rx="2" fill="#c2410c" opacity=".16"/><rect x="520" y="84.0" width="4" height="32.0" rx="2" fill="#c2410c" opacity=".16"/><rect x="530" y="84.2" width="4" height="31.6" rx="2" fill="#c2410c" opacity=".16"/><rect x="540" y="90.4" width="4" height="19.3" rx="2" fill="#c2410c" opacity=".16"/><rect x="550" y="91.5" width="4" height="16.9" rx="2" fill="#c2410c" opacity=".16"/><rect x="560" y="94.9" width="4" height="10.2" rx="2" fill="#c2410c" opacity=".16"/><rect x="570" y="94.5" width="4" height="10.9" rx="2" fill="#c2410c" opacity=".16"/><rect x="580" y="91.0" width="4" height="17.9" rx="2" fill="#c2410c" opacity=".16"/><rect x="590" y="88.6" width="4" height="22.8" rx="2" fill="#c2410c" opacity=".16"/><rect x="600" y="83.7" width="4" height="32.6" rx="2" fill="#c2410c" opacity=".16"/><rect x="610" y="85.1" width="4" height="29.8" rx="2" fill="#c2410c" opacity=".16"/><rect x="620" y="79.1" width="4" height="41.8" rx="2" fill="#c2410c" opacity=".16"/><rect x="630" y="77.7" width="4" height="44.7" rx="2" fill="#c2410c" opacity=".16"/><rect x="640" y="75.6" width="4" height="48.7" rx="2" fill="#c2410c" opacity=".16"/><rect x="650" y="75.4" width="4" height="49.1" rx="2" fill="#c2410c" opacity=".16"/><rect x="660" y="68.1" width="4" height="63.9" rx="2" fill="#c2410c" opacity=".16"/><rect x="670" y="64.8" width="4" height="70.4" rx="2" fill="#c2410c" opacity=".16"/><rect x="680" y="71.3" width="4" height="57.3" rx="2" fill="#c2410c" opacity=".16"/><rect x="690" y="67.4" width="4" height="65.2" rx="2" fill="#c2410c" opacity=".16"/><rect x="700" y="77.5" width="4" height="45.0" rx="2" fill="#c2410c" opacity=".16"/><rect x="710" y="66.2" width="4" height="67.5" rx="2" fill="#c2410c" opacity=".16"/><rect x="720" y="67.5" width="4" height="65.0" rx="2" fill="#c2410c" opacity=".16"/><rect x="730" y="62.3" width="4" height="75.5" rx="2" fill="#c2410c" opacity=".16"/><rect x="740" y="66.3" width="4" height="67.5" rx="2" fill="#c2410c" opacity=".16"/><rect x="750" y="76.1" width="4" height="47.9" rx="2" fill="#c2410c" opacity=".16"/><rect x="760" y="75.9" width="4" height="48.3" rx="2" fill="#c2410c" opacity=".16"/><rect x="770" y="73.7" width="4" height="52.6" rx="2" fill="#c2410c" opacity=".16"/><rect x="780" y="83.7" width="4" height="32.6" rx="2" fill="#c2410c" opacity=".16"/><rect x="790" y="80.6" width="4" height="38.8" rx="2" fill="#c2410c" opacity=".16"/><rect x="800" y="85.6" width="4" height="28.9" rx="2" fill="#c2410c" opacity=".16"/><rect x="810" y="87.9" width="4" height="24.1" rx="2" fill="#c2410c" opacity=".16"/><rect x="820" y="90.3" width="4" height="19.4" rx="2" fill="#c2410c" opacity=".16"/><rect x="830" y="89.8" width="4" height="20.5" rx="2" fill="#c2410c" opacity=".16"/><rect x="840" y="94.2" width="4" height="11.6" rx="2" fill="#c2410c" opacity=".16"/><rect x="850" y="95.6" width="4" height="8.9" rx="2" fill="#c2410c" opacity=".16"/><rect x="860" y="92.8" width="4" height="14.3" rx="2" fill="#c2410c" opacity=".16"/><rect x="870" y="88.2" width="4" height="23.7" rx="2" fill="#c2410c" opacity=".16"/><rect x="880" y="89.5" width="4" height="21.1" rx="2" fill="#c2410c" opacity=".16"/><rect x="890" y="84.6" width="4" height="30.7" rx="2" fill="#c2410c" opacity=".16"/><rect x="900" y="81.2" width="4" height="37.5" rx="2" fill="#c2410c" opacity=".16"/><rect x="910" y="75.1" width="4" height="49.8" rx="2" fill="#c2410c" opacity=".16"/><rect x="920" y="73.2" width="4" height="53.6" rx="2" fill="#c2410c" opacity=".16"/><rect x="930" y="70.3" width="4" height="59.4" rx="2" fill="#c2410c" opacity=".16"/><rect x="940" y="76.9" width="4" height="46.1" rx="2" fill="#c2410c" opacity=".16"/><rect x="950" y="73.6" width="4" height="52.8" rx="2" fill="#c2410c" opacity=".16"/><rect x="960" y="73.5" width="4" height="53.0" rx="2" fill="#c2410c" opacity=".16"/><rect x="970" y="63.8" width="4" height="72.4" rx="2" fill="#c2410c" opacity=".16"/><rect x="980" y="61.9" width="4" height="76.1" rx="2" fill="#c2410c" opacity=".16"/><rect x="990" y="75.9" width="4" height="48.3" rx="2" fill="#c2410c" opacity=".16"/><rect x="1000" y="75.6" width="4" height="48.9" rx="2" fill="#c2410c" opacity=".16"/><rect x="1010" y="75.0" width="4" height="50.0" rx="2" fill="#c2410c" opacity=".16"/><rect x="1020" y="75.6" width="4" height="48.7" rx="2" fill="#c2410c" opacity=".16"/><rect x="1030" y="72.6" width="4" height="54.8" rx="2" fill="#c2410c" opacity=".16"/><rect x="1040" y="72.4" width="4" height="55.1" rx="2" fill="#c2410c" opacity=".16"/><rect x="1050" y="78.7" width="4" height="42.6" rx="2" fill="#c2410c" opacity=".16"/><rect x="1060" y="83.5" width="4" height="32.9" rx="2" fill="#c2410c" opacity=".16"/><rect x="1070" y="80.4" width="4" height="39.1" rx="2" fill="#c2410c" opacity=".16"/><rect x="1080" y="83.1" width="4" height="33.7" rx="2" fill="#c2410c" opacity=".16"/><rect x="1090" y="83.9" width="4" height="32.1" rx="2" fill="#c2410c" opacity=".16"/><rect x="1100" y="84.5" width="4" height="31.1" rx="2" fill="#c2410c" opacity=".16"/><rect x="1110" y="89.2" width="4" height="21.7" rx="2" fill="#c2410c" opacity=".16"/><rect x="1120" y="92.8" width="4" height="14.5" rx="2" fill="#c2410c" opacity=".16"/><rect x="1130" y="95.7" width="4" height="8.6" rx="2" fill="#c2410c" opacity=".16"/><rect x="1140" y="93.1" width="4" height="13.9" rx="2" fill="#c2410c" opacity=".16"/><rect x="1150" y="92.1" width="4" height="15.7" rx="2" fill="#c2410c" opacity=".16"/><rect x="1160" y="85.5" width="4" height="29.1" rx="2" fill="#c2410c" opacity=".16"/><rect x="1170" y="82.9" width="4" height="34.2" rx="2" fill="#c2410c" opacity=".16"/><rect x="1180" y="79.0" width="4" height="42.0" rx="2" fill="#c2410c" opacity=".16"/><rect x="1190" y="76.8" width="4" height="46.4" rx="2" fill="#c2410c" opacity=".16"/></svg>